<svg xmlns="http://www.w3.org/2000/svg" width="226.076" height="300" viewBox="0 0 59.816 79.375"><path fill="#fff" d="M.84 12.809 29.776.82l28.647 11.988s7.358 41.066-28.561 65.689c0-.001-30.914-15.326-29.024-65.69z"/><path d="M6.72 26.46v-.26l.206-.575.898-2.025c.113-.258.223-.52.306-.791.116-.369.045-.742-.03-1.11-.078-.386-.073-.757.105-1.118l.078-.233-.036.013-.115-.185a6.549 6.549 0 0 1-.108-.76c-.034-.544.042-1.084.125-1.623.159-1.041.554-1.994 1.128-2.877.1-.153.185-.319.254-.49l.336-.906c.16-.435.42-.789.813-1.041l.464-.303.905-.6.135-.108.124.16c.199.231.36.269.634.132l.451-.257c.294-.151.58-.316.886-.438.33-.132.669-.178 1.016-.004.299.148.33.124.5-.163.07-.116.144-.24.282-.273.221-.053.444-.092.67-.121.113-.017.21.033.28.138.088.13.222.199.38.21l.293-.012c.28-.043.555-.033.826.058l.585.18c.208.06.423.111.628.034a.957.957 0 0 1 .817.083c.267.149.525.316.78.488a.76.76 0 0 0 .5.134l.306-.03.33.058c.083.021.1.094.078.174l-.07.213c-.04.106-.02.194.076.257.367.244.647.576.948.885.239.246.503.452.825.58l.58.26c.184.082.186.09.105.27l-.1.25c-.042.15.046.23.196.18l.137-.066c.172-.098.264-.052.266.147a1.6 1.6 0 0 1-.039.456.7.7 0 0 0 .139.676l.523.596.227.268c.095.137.078.269-.035.386l-.205.178c-.229.19-.241.277-.064.512l.2.233.25.275-.677.556.45.499-.144.088-.363.242c-.144.117-.154.213-.065.371l.232.407-.171.045-.49.193c-.16.084-.167.215-.05.355a.796.796 0 0 0 1.122.121c.23-.177.383-.415.51-.67.614-1.221.696-2.494.367-3.803-.318-1.26-.874-2.422-1.508-3.552l-.235-.473a.545.545 0 0 1 .015-.468l.205-.385c.158-.257.36-.476.59-.67.525-.444 1.108-.497 1.738-.274.22.079.222.074.222.308v1.31c-.254.115-.5.208-.731.334-.419.23-.76.559-1.09.9-.058.059-.06.1-.024.172.206.422.418.844.605 1.278.459 1.065.786 2.165.826 3.335.017.521-.027 1.025-.276 1.504-.113.215-.172.462-.242.698a.466.466 0 0 0 .049.377c.074.118.177.134.271.03l.144-.226.4-.959.046-.098c.02.323.023.64.017.954l-.057.233-.402.828-.007.108c.08.145.289.181.418.076l.038-.025c.048.226.035.418-.21.516l-.07.046-.297.24.02.034.565-.141v.34l-.117.03-.81.069c-.387.017-.7.13-.866.51-.122.278-.098.541.121.749.136.13.296.238.46.324.347.184.723.28 1.11.337l.102.075.006.69-.068-.013-2.077-.526-.147.051-.621.728-.083.112.113.017c.254.065.54.08.751.211.26.162.475.412.681.647.159.182.099.35-.12.455l-.272.103c.594.248 1.172.528 1.838.488v.334l-.47-.185a8.275 8.275 0 0 0-.891-.163c-.763-.095-1.271-.499-1.547-1.21-.187-.487-.26-.997-.297-1.511l-.075-1.251a.772.772 0 0 0-.357-.623l-.22.242-.098.191a2.564 2.564 0 0 0 0 .471c.026.21.11.394.329.482l.076.083.064.44-.143-.033-.805-.182-.221.042.067.199.37.52.102.215c-.389-.074-.677.056-.82.34l.52.17c.149.07.162.181.06.308l-.173.178-.374.343a.415.415 0 0 0-.115.224c-.015.172-.017.348.006.517.12.807.502 1.475 1.088 2.032.42.401.905.72 1.397 1.025.152.096.3.203.43.328.14.136.1.254-.088.307l-.408.115c-.63.26-1.184.638-1.676 1.106-.574.543-.987 1.203-1.325 1.911a8.801 8.801 0 0 1-2.7 3.29c-.72.536-1.508.928-2.412 1.039-.321.037-.496-.076-.565-.393l-.142-.8c-.165-.745-.414-1.459-.818-2.112-.233-.374-.532-.646-.972-.745-.444-.1-.776-.369-1.05-.719l-.578-.763c-.432-.588-1.006-.879-1.737-.836l-1.037.083c-.624.055-1.208-.06-1.73-.416-.234-.161-.413-.363-.458-.66a.939.939 0 0 1 .093-.524l.28-.611c.134-.352.067-.545-.25-.755l-.362-.221c-.181-.124-.232-.268-.184-.481l.054-.253c.036-.222-.033-.419-.144-.605-.18-.308-.152-.602.066-.878l.276-.325.149-.196c.064-.11.042-.194-.072-.256l-.229-.09-.636-.122c-.336-.074-.668-.154-.78-.548zm1.68-8.896-.026.07c-.06.321-.128.64-.173.965-.067.498-.054.996.052 1.49l.115.084.282-.025c1.004-.042 2.001.048 2.978.277 1.072.25 2.13.543 3.194.823.772.204 1.534.447 2.33.54.262.03.533.05.772-.095a3.33 3.33 0 0 1 1.383-.47c.575-.062 1.062.216 1.294.745.193.442.214.907.175 1.378a.897.897 0 0 1-.209.504l-.12.212c-.042.111.01.202.127.196l.557-.072.052-.053c.045-.216.208-.297.394-.343.254-.065.519-.065.774-.013l1.528.345a.281.281 0 0 0 .216-.038c.123-.09.231-.2.332-.316l.281-.38-1.261-.333-.146-.003-.006.038c.263.278.644.272.981.392-.125.025-.252.053-.374.033a4.132 4.132 0 0 1-1.733-.698c-.143-.1-.265-.236-.383-.364-.059-.063-.093-.153-.048-.249 1.003.384 2.07.547 3.061.996.323-.884.367-1.742-.198-2.531-.347-.485-.755-.93-1.145-1.382-.148-.174-.326-.321-.494-.475a.404.404 0 0 0-.334-.112l-.425.008-3.102-.164c-.084-.004-.115-.063-.055-.127l.248-.192.504-.232.085-.046-1.647-.58-.347-.06-.12.034.06.12c.155.161.361.216.574.249l.604.073.011.03-.197.106a1.52 1.52 0 0 1-.44.037c-.678-.06-1.29-.305-1.863-.659-.282-.177-.541-.382-.705-.683l-.107-.06c-.584-.148-1.17-.292-1.774-.321-.402-.021-.806-.03-1.151.24l-.092-.004-.003-.101.335-.473.059-.096c-.633-.016-1.24-.09-1.827-.281-.594-.193-1.137-.474-1.588-.932-.484.856-.896 1.732-1.185 2.664l.068.107.68.234 3.034.879c.742.22 1.465.495 2.143.88.191.109.287.289.366.476.04.092-.008.143-.101.112l-.317-.15a1.841 1.841 0 0 0-.532-.274c-.771-.245-1.531-.527-2.329-.679l-.238.02.154.194c.235.181.516.265.798.338l.867.197-.166.083c-.254.003-.513.029-.761-.013-1.053-.19-2.013-.615-2.9-1.202-.343-.225-.657-.484-.846-.889zm17.544 4.518c-.205.043-.352.179-.478.336a2.07 2.07 0 0 0-.464 1.108c-.064.66.142.788.593.893l.033.004c.391.064.614-.108.62-.504a3.996 3.996 0 0 0-.063-.727c-.063-.368-.157-.729-.241-1.111zM9.955 23.318c-.068.087-.095.171-.01.249.066.058.132.043.203-.004l.301-.172.597-.218c.203-.091.221-.23.061-.385-.386-.37-.862-.5-1.383-.487l-.119.09.022.152.071.175c.04.217.074.436.257.6zm1.612-1.104-.053-.092-.238-.23c-.616-.483-1.329-.569-2.078-.487-.094.013-.155.096-.135.177.025.092.09.132.188.121l.304-.02c.668-.013 1.283.126 1.75.654l.046.038c.099.049.218-.025.216-.158zm6.46 4.485c.305.001.705-.167.913-.388l.023-.122-.126.017-.334.22c-.194.103-.404.158-.625.105-.269-.065-.488-.195-.59-.47-.1-.273-.025-.511.16-.72.162-.191.37-.312.598-.415l.088-.111-.14-.025c-.199.116-.405.227-.583.369a.81.81 0 0 0-.31.59c-.038.531.374.95.927.952zM26.417 40.009l-.26-.063c-.553-.148-.962-.488-1.279-.951a3.508 3.508 0 0 1-.557-1.38c-.033-.191.003-.365.172-.484.707-.493 1.292-1.129 1.94-1.69l.838-.763c.207-.188.24-.344.122-.6l-.208-.382-.248-.573a.548.548 0 0 1 .11-.565l.497-.539.702-.744.009.085v.993l-.076.167c-.234.167-.467.335-.716.476-.29.165-.36.334-.167.608.151.215.335.405.512.603l.27.264c.154.118.202.26.185.451l-.004.509-.244-.133a.285.285 0 0 0-.303-.008l-.326.212-2.035 1.8-.5.433a.356.356 0 0 0-.13.334l.017.082c.215.642.562 1.187 1.157 1.538.095.057.225.08.338.078.207-.002.296-.176.175-.344l-.311-.334-.324-.312c-.12-.138-.09-.238.085-.282l.407-.071a.737.737 0 0 0 .31-.15c.113-.104.204-.237.292-.368.152-.228.335-.426.566-.58.307-.204.58-.446.786-.755l.041-.025V38.4c0 .795-.577 1.464-1.362 1.587l-.076.025h-.405z"/><path fill="#fff" d="M8.4 17.564c.19.405.503.664.842.889.888.587 1.847 1.012 2.898 1.202.248.045.509.02.762.012l.165-.083-.866-.196c-.281-.072-.563-.156-.798-.338l-.154-.192.242-.021c.8.15 1.558.434 2.329.678.193.062.369.154.533.273l.315.15c.095.029.142-.021.103-.111-.08-.19-.176-.367-.367-.477-.677-.384-1.4-.66-2.142-.88l-3.034-.88-.68-.234-.069-.108c.289-.93.7-1.808 1.186-2.663.448.458.993.741 1.588.933.587.191 1.194.264 1.826.28l-.058.095-.334.473.002.101.092.004c.344-.27.747-.258 1.15-.24.604.03 1.19.174 1.772.322l.108.06c.165.301.423.507.704.683.573.355 1.187.601 1.863.66a1.75 1.75 0 0 0 .442-.038l.197-.108-.012-.029-.604-.073c-.213-.03-.419-.087-.573-.25l-.06-.12.12-.028.347.062 1.646.577-.085.046-.503.232-.248.192c-.059.064-.028.121.055.127l3.101.164.426-.008a.406.406 0 0 1 .334.113c.169.154.346.302.495.474.39.452.795.897 1.143 1.382.565.789.522 1.647.2 2.532-.992-.45-2.06-.613-3.063-.996-.045.094-.01.185.048.248.12.13.24.264.383.365a4.142 4.142 0 0 0 1.734.699c.12.016.25-.008.373-.034-.338-.118-.718-.114-.982-.39l.006-.039.147.001 1.262.334-.282.38c-.1.115-.211.225-.331.316-.053.042-.149.052-.217.037l-1.528-.344a1.752 1.752 0 0 0-.775.012c-.186.047-.348.128-.393.344l-.053.053-.557.073c-.116.004-.168-.086-.129-.197l.122-.212a.904.904 0 0 0 .208-.505c.038-.47.017-.935-.176-1.377-.233-.53-.719-.808-1.293-.744-.496.054-.957.209-1.385.47-.238.143-.508.125-.772.094-.797-.093-1.558-.337-2.329-.541-1.064-.28-2.124-.573-3.195-.822-.976-.23-1.974-.32-2.978-.277l-.284.025-.112-.085a4.293 4.293 0 0 1-.053-1.49c.046-.323.115-.642.174-.964zm11.855 2.042.64.137c.297.07.588.158.812.378l.124.226-.257.017c-.727-.162-1.421-.427-2.11-.707-.796-.324-1.622-.456-2.476-.457l-.168.053.12.132c.24.118.478.239.726.336 1.518.588 3.077 1.053 4.63 1.537.674.212 1.366.38 2.013.673a.716.716 0 0 0-.128-.533 4.42 4.42 0 0 0-.565-.663 5.63 5.63 0 0 0-1.876-1.088c-.34-.123-.688-.23-1.059-.208a.653.653 0 0 0-.426.167zm5.689 2.476c.084.383.177.744.244 1.112.042.237.064.483.062.726-.004.397-.227.569-.62.504l-.033-.004c-.45-.105-.658-.233-.592-.893a2.06 2.06 0 0 1 .464-1.108c.125-.157.27-.292.475-.335zM9.955 23.318c-.185-.165-.217-.384-.259-.6l-.07-.176-.023-.15.118-.092c.522-.012.996.117 1.385.488.161.153.142.293-.06.384l-.598.219-.301.171c-.071.048-.139.062-.203.004-.084-.077-.056-.161.011-.249zm.384-.657-.488-.075-.034.03.165.492.11.08.111-.1zm.144.056-.108.38.439-.142.007-.034zm1.084-.503c.003.135-.115.208-.215.158l-.045-.037c-.468-.529-1.081-.666-1.75-.655l-.304.02c-.097.009-.163-.029-.186-.121-.022-.08.04-.165.135-.176.749-.082 1.461.003 2.078.486l.237.23zm6.46 4.485c-.552-.001-.965-.42-.93-.95a.813.813 0 0 1 .311-.59c.179-.143.385-.253.584-.369l.139.025-.089.111c-.225.102-.434.223-.597.415-.184.21-.26.448-.16.72.101.275.323.408.59.47.223.054.43-.001.626-.104l.333-.221.127-.017-.024.122c-.203.22-.603.388-.91.387z"/><path d="M20.255 19.606a.669.669 0 0 1 .426-.17c.37-.02.717.085 1.058.209.692.249 1.329.598 1.876 1.089.215.193.392.43.565.661a.72.72 0 0 1 .129.533c-.649-.293-1.34-.46-2.014-.671-1.55-.485-3.11-.95-4.629-1.537-.248-.098-.487-.22-.725-.336l-.121-.133.168-.053c.855.001 1.682.134 2.477.459.688.28 1.381.546 2.11.707l.256-.017-.124-.227c-.225-.22-.516-.307-.812-.377zm-9.916 3.055-.136.427-.11.101-.111-.08-.165-.493.034-.029zm.144.056.339.203-.007.033-.439.143zM51.759 28.392c-.257.126-.974.497-1.071.575.496.083.975.194 1.41.444l.368.242-.013.038-.44.029-1.088-.025c-1.022-.025-2.04.017-3.033.299a7.35 7.35 0 0 0-2.091.978l.146-.196.168-.203c.689-.85 1.534-1.517 2.458-2.091.467-.29.913-.603 1.269-1.03.426-.51.715-1.097.91-1.725.173-.554.307-1.12.462-1.68l.03-.124c.57 1.484.486 3.611-1.634 5.008l.082.013.854.025.144-.067c.156-.159 1.613-1.6 1.841-2.402.224-.768.299-1.556.288-2.351l-.03-.896-.02-.17-.412.525-.08.086c-.074.078-.154.089-.238.03-.082-.066-.082-.151-.033-.238l.189-.346c.208-.477.249-.976.204-1.487-.06-.7-.27-1.356-.566-1.99l-.052-.094-.058.08c-.106.2-.298.326-.442.49l-.361.425-.355.397-.174.179a12.62 12.62 0 0 0-1.717 3.534c-.203.67-.38 1.35-.577 2.023a4.23 4.23 0 0 1-.182.492c-.19.409-.48.558-.906.415a3.915 3.915 0 0 1-.837-.404 7.41 7.41 0 0 1-1.3-1.05l-.081-.173c-.03-.456-.058-.909-.07-1.363-.021-.802-.049-1.604-.043-2.407.004-.807.025-1.62.082-2.426.083-1.148.578-2.124 1.344-2.971a5.615 5.615 0 0 1 2.673-1.675c.385-.11.775-.19 1.179-.183.64.012 1.128.298 1.48.824.316.469.464 1.004.545 1.557.051.34.074.687.112 1.058l.165-.268a6.53 6.53 0 0 0 .756-2.341c.037-.307.05-.62.07-.928l-.06-.12c-.714-.357-1.08-.966-1.281-1.705l-.046-.222-.038-.232-.105.061c-.383.24-.767.481-1.208.593-.14.033-.298.052-.439.033-.291-.042-.485-.299-.466-.613l.07-.726c-1.62.666-2.967 1.686-3.937 3.195-.967 1.508-1.367 3.145-1.192 4.934l-.054-.11c-.581-1.469-.542-2.913.173-4.327.418-.83 1.025-1.508 1.733-2.101l.12-.106h-.486c-.766.03-1.53.083-2.282.25-.598.137-1.184.317-1.656.73l-.401.44a3.826 3.826 0 0 0-1.107-.39c-.827-.155-1.636-.061-2.43.189a7.518 7.518 0 0 0-1.546.7l-.11.025.526-.462c.572-.466 1.187-.848 1.902-1.049.6-.17 1.192-.162 1.772.067.238.093.452.246.69.378l.212-.255c.49-.51 1.105-.784 1.788-.922.488-.1.984-.154 1.476-.084.535.078 1.06.208 1.592.321l.195-.037a14.82 14.82 0 0 1 3.266-1.887c.113-.047.25-.053.374-.061.5-.025.995-.013 1.482.124.94.257 1.512.846 1.687 1.811.097.533.147 1.071.137 1.615-.025.993-.211 1.95-.62 2.852-.167.366-.39.705-.59 1.054-.07.124-.2.24-.208.368-.008.12.11.245.157.372.108.305.308.553.478.82.223.353.415.731.572 1.117.322.8.415 1.648.385 2.508-.008.265.177 2.816-1.852 4.39zm-3.177-11.617.055-.065.303-.4.116-.07.052.132.002.217.288-.223.1-.03.05.109v.148l.29-.223.11-.029.045.111.002.223.144-.001c.107-.013.153.033.144.144l-.002.396.467-.434c.098-.089.108-.136.008-.221a1.623 1.623 0 0 0-.358-.237c-.428-.202-.892-.295-1.354-.382l-.462-.08zm-2.628 7.086-.029-.013-.099.126c-.118.24-.24.477-.332.725-.084.207-.07.22.143.301.64.246 1.317.345 1.987.448l.085-.042.214-.663-.03-.017-.206.227-.214.1h-.61l-.17-.062c-.12-.162-.275-.195-.463-.145l-.104.004c-.16.004-.223-.067-.212-.227zm1.198-6.428c.451-.328.771-1.155.56-1.491l-.763.553-.033.09zm3.615.888.042-.013.408-.402.077-.16.02-.38c.004-.27-.112-.377-.38-.355l-.163.03v1.282h-.002zm-14.653 8.934a6.983 6.983 0 0 0 2.532.653l-.167.096c-.597.302-1.236.494-1.88.652-.906.219-1.82.372-2.743.475-.774.085-1.554.15-2.33.223l-.361.029.003-.524.09-.092c.551-.308 1.108-.603 1.65-.926a22.61 22.61 0 0 0 3.86-2.876c1.154-1.08 2.16-2.28 2.898-3.688l.04-.046a13.846 13.846 0 0 1-1.319 3.296c-.59 1.041-1.296 1.986-2.273 2.73zm-4.95-2.047.004-.826.079-.181c.753-1.09 1.727-1.937 2.867-2.602 1.119-.654 2.328-1.093 3.59-1.378.38-.084.764-.158 1.15-.226l.321-.003.017.042-.247.36c-.59.846-1.219 1.661-1.921 2.414-.752.805-1.56 1.54-2.52 2.094-.59.34-1.213.594-1.895.656-.176.017-.35.002-.527-.012 1.548-.492 2.705-1.46 3.548-2.852a1.853 1.853 0 0 0-.705.017c-.67.125-1.249.445-1.801.823-.683.464-1.282 1.018-1.848 1.606l-.067.099zm9.394 6.955a3.6 3.6 0 0 1-.764 1.065c-.537.53-1.177.899-1.873 1.175-.96.38-1.966.585-2.993.705-.992.115-1.989.151-2.985.13l-.762-.025c-.039-.193-.03-.193.16-.21 1.246-.099 2.483-.243 3.688-.59.55-.16 1.083-.358 1.542-.715l.224-.197-.321-.168c-.375-.138-.766-.18-1.162-.214-.978-.088-1.96-.078-2.944-.07l-1.004.034-.083-.03.516-.222a8.462 8.462 0 0 1 2.144-.509c1.063-.121 2.128-.1 3.194-.092.806.008 1.613 0 2.421-.008zm10.54 2.322c.673-.146 1.274-.412 1.853-.733a11.963 11.963 0 0 0 1.637-1.133l-.116.233c-.296.541-.732.95-1.236 1.295-.834.574-1.76.943-2.719 1.243-1.342.419-2.717.677-4.105.856l-.913.1h-.154l.924-.358c1.47-.607 2.842-1.392 4.074-2.41 1.177-.973 2.14-2.122 2.784-3.519a8.35 8.35 0 0 0 .562-1.713l.038-.093c.428 2.616-.647 4.602-2.627 6.232zm-14.362-5.148c.959.008 1.765-.317 2.435-.954.42 1.176 1.28 1.921 2.358 2.452.72.352 1.488.542 2.284.628l.568.057-.09.043c-1.03.365-2.091.53-3.181.439-1.2-.102-2.274-.531-3.194-1.321a6.638 6.638 0 0 1-1.114-1.243zm6.967 3.169c.03.38.062.734.07 1.086.013.4.013.804-.017 1.207-.052.834-.208 1.645-.642 2.378-.466.774-1.144 1.23-2.055 1.306-.248.021-.5.002-.748-.012 1.574-.718 2.156-2.034 2.248-3.681-1.482 1.001-3.121 1.2-4.827 1.133l.687-.221c1.297-.441 2.565-.944 3.73-1.68.495-.312.958-.667 1.312-1.142zm2.895 1.535c.809-.394 1.671-.557 2.57-.6l-.214.157c-.788.524-1.634.935-2.49 1.327-.46.208-.92.402-1.38.601l-.1.034v-.324c.073-.948.385-1.805.994-2.541.536-.648 1.223-1.092 2.008-1.38a7.28 7.28 0 0 1 2.113-.432c.469-.025.94-.033 1.413-.025-2.034.459-3.76 1.382-4.914 3.184zm.461-4.882-.37.2c-.597.254-1.222.42-1.866.459-.938.054-1.781-.189-2.44-.895-.406-.43-.652-.95-.82-1.51-.195-.634-.26-1.289-.318-1.945-.065-.859.038-1.712.12-2.565l.083-.64.058-.2h.048l.038.303c.021.424.017.853.051 1.278.08.936.234 1.856.573 2.742.266.698.618 1.348 1.169 1.87.635.605 1.401.912 2.271.93.364.008.731-.044 1.095-.066h.297zm-15.896-6.425v-.15c0-.87 0-1.738.004-2.609l.082-.236c.296-.379.625-.717 1.056-.943l.325-.14-.206.568a5.392 5.392 0 0 0-.15.675c-.028.15-.001.158.146.158.634 0 1.268-.004 1.903.001l2.175.038.132.017c-1.97.546-3.821 1.338-5.467 2.622zm5.808-4.933c.673-.365 1.346-.72 2.118-.83-1.607.794-3 1.896-4.364 3.038l-.03-.02.201-.477c.283-.56.666-1.051 1.076-1.519.28-.318.58-.617.87-.925l.09-.074c-.201.386-.426.758-.528 1.192.166-.137.393-.187.502-.41a4.544 4.544 0 0 1 1.396-1.708l.062-.05c-.268-.076-.526-.062-.782-.024-.857.132-1.588.53-2.256 1.065-.826.659-1.483 1.468-2.066 2.343l-.192.29-.023.02-.001-.028c.454-.922.964-1.81 1.64-2.59.518-.598 1.105-1.106 1.838-1.431.963-.429 2.151-.34 3.004.252-1.036.385-1.853 1.057-2.555 1.888zm-5.806 13.755.002-.707.06-.092.174-.134c-.238-.058-.238-.058-.238-.301v-.448l5.15.156-.547.325c-.724.374-1.498.618-2.287.789-.733.16-1.477.277-2.22.413h-.094zm4.999-16.008c-.394-.118-.813-.26-1.242-.365a3.114 3.114 0 0 0-1.386-.046c-.704.141-1.132.579-1.349 1.249-.136.427-.167.869-.145 1.313l.083 1.083-.256-.648a6.65 6.65 0 0 1-.368-1.504c-.045-.404-.035-.806.083-1.197.245-.784.881-1.223 1.698-1.154.61.05 1.193.189 1.715.537.368.247.75.469 1.128.704zm5.67 24.895.31-.327c.73-.732 1.52-1.386 2.413-1.912.755-.444 1.555-.774 2.417-.934l.468-.05-.05.038c-.762.343-1.423.829-2.054 1.37a16.058 16.058 0 0 0-1.724 1.758l-.185.082-1.58-.001zm-.915-18.405c.144-.374.342-.676.553-.964.581-.789 1.267-1.488 1.976-2.163l.348-.323-.399.948c-.392.99-.67 2.009-.794 3.068-.083.725-.083 1.45.055 2.17l.008.076c-.132-.139-.446-1.091-.545-1.638-.105-.567-.105-.77-.013-1.754a3.277 3.277 0 0 0-1.19.58zm-2.068 18.43h-1.164l-2.334-.001-.246-.034-2.529-.712-.078-.034c2.204-.486 4.316-.161 6.354.752zm-7.688-3.718c2.396.894 4.867 1.023 7.368.915l-.75.117c-.666.075-1.328.154-1.994.21-.98.083-1.962.083-2.942-.022-.525-.055-1.042-.166-1.566-.249-.099-.017-.123-.058-.121-.15zm9.43-21.15c-.485-.323-.99-.54-1.595-.523a1.06 1.06 0 0 1 .76-.212 2.44 2.44 0 0 1 1.123.415c.35.233.674.5 1.01.75l.047.058c-1.036.116-2.02.314-2.708 1.207l.106-.311c.19-.404.493-.716.816-1.008zm2.449.828.07-.597.025-.197.136-.27.359-.426-.086-.121-.436.37c-.074.065-.148.102-.236.046-.085-.055-.085-.132-.066-.23l.115-.154c.32-.203.629-.426.962-.598.333-.172.7-.215 1.074-.121.086.02.16.059.175.153.017.097-.046.15-.12.2-.354.24-.71.477-1.056.725-.428.305-.743.702-.86 1.23zm3.03 11.586c-.615.092-2.02-.764-2.608-1.531-.774-1.01-.822-2.57-.59-3.175l.033.363c.058 1.237.483 2.317 1.377 3.19.408.401.883.706 1.4.948zm-14.907-.329v-.622l.05-.08 1.74-.658c-.172.313-1.302 1.163-1.79 1.36zm19.146-6.264-1.82 4.551c.289-1.658.971-3.163 1.82-4.551zm-6.274-1.682c.294.747-.013 2.02-.623 2.37.474-.723.53-1.55.623-2.37zm-12.194 14.27-.673.1v-.19l.674.06z"/><path fill="#ec1c24" d="m28.186 77.316 1.678 1.18 1.308-.92.04-8.116h-3.026zm3.138-36.808.017-38.978H28.19v38.978l-24.79.017 2.364 7.268 5.451.021-.003 10.831.15.531 2.95 4.352.043-.012V47.833l6.08.012-.003 22.398.197.469 2.94 2.548V47.835h4.618v5.296h3.11l.03-5.3 4.612.009v25.035l2.943-2.563.194-.445.007-22.044 6.069.013.025 15.614 2.959-4.15.156-.528-.002-10.983h5.367l.335-.227 2.33-7.055z"/><path fill="#231f20" d="m29.927 79.375-.401-.196c-.324-.16-7.978-4.03-15.492-14.19-4.402-5.948-7.827-12.827-10.18-20.446C.918 35.038-.352 24.35.084 12.778l.018-.485L29.78 0 59.1 12.267l.074.407c.076.424 1.831 10.56-.814 23.895-1.557 7.832-4.327 15.124-8.23 21.668-4.88 8.183-11.554 15.21-19.837 20.89zM1.579 13.321C.73 38.788 8.502 54.936 15.197 64.015c6.362 8.625 12.973 12.671 14.616 13.594C47.867 65.062 54.494 48.225 56.869 36.27c2.303-11.594 1.168-20.916.87-22.928L29.774 1.64Z"/><path fill="#fff" d="m11.069 41.855-3.633 4.481h3.766l.496-.478h2.833l.363.354h3.925l-3.537-4.356H11.07Zm1.26 2.948.726-1.452.726 1.452zm36.178-2.948h-4.216l-3.631 4.481h3.766l.496-.478h2.837l.36.354h3.921zm-2.957 2.948.727-1.452.727 1.452zm-19.904-.846c0 2.95 8.186 2.153 8.186 2.153v-1.45s-4.263.937-4.263-.701c0-1.636 4.263-.7 4.263-.7v-1.453c0 .002-8.186-.791-8.186 2.151z"/><path fill="#231f20" d="M24.601 64.382c.582 0 .711-.281.828-.601h.507v4.795h-.753v-3.66H24.6zm4.458 3.002c0 .807-.368 1.245-1.15 1.245-.739 0-1.123-.439-1.123-1.204V67.3h.712v.173c0 .342.151.47.391.47.269 0 .418-.13.418-.588v-.876c-.13.273-.363.424-.698.424-.554 0-.835-.39-.835-1.094v-.876c0-.769.403-1.208 1.145-1.208.74 0 1.143.438 1.143 1.208zm-.752-1.639v-.863c0-.343-.15-.466-.39-.466-.241 0-.39.123-.39.466v.862c0 .345.149.474.39.474.24 0 .39-.13.39-.473zm1.719-1.363c.582 0 .712-.281.827-.601h.51v4.795h-.754v-3.66h-.582zm2.188.551c0-.769.403-1.209 1.14-1.209.74 0 1.147.439 1.147 1.209v2.492c0 .765-.408 1.204-1.147 1.204-.738 0-1.14-.439-1.14-1.204zm.751 2.54c0 .343.15.471.39.471.244 0 .391-.13.391-.47v-2.592c0-.343-.147-.47-.391-.47-.24 0-.39.13-.39.47z"/><path d="m28.693 57.324.759-1.473v-.426h-.986v-.756h.987v-.947h.719v1.023l.95-.037v.814h-.989l.039.33.644 1.472-.037 4.284h-2.008zm-1.896 4.284s-2.848-5.993 2.16-4.795l-.264.51s-3.121-.416-1.219 4.134zm5.875 0s2.849-5.993-2.159-4.795l.264.51s3.119-.416 1.222 4.134zm-6.18 0s3.11-.72 6.412 0v1.024h-6.412zm5.85-4.877s5.718.365.562 4.877l-.305-.033s4.213-3.905-.263-4.474zm-5.271 0s-5.72.365-.562 4.877l.302-.033s-4.21-3.905.266-4.474z"/></svg>